. 
 
http://www.torrenting.com          :     Once & For all ;)


               www . Torrenting . Com 

(((((((((((((= Enjoy No RAR releases =))))))))))))))))))))


...................................NFO:....................................

.[IMG]http://img267.imageshack.us/img267/2195/idontknowhowshedoesitbl.jpg[/IMG]


[color=blue][size=5][b]I.Dont.Know.How.She.Does.It.2011.BDRip.XVID.AC3.HQ.Hive-CM8[/b][/size][/color]


[b]Thx Hive

CM8 Doing It Right The First Time :D


Source: Bluray

Video: 720x400 @bitrate 1700 2pass
Audio: English DTS to AC3 5.1 @384
Sample: Yes, included
Subs: Yes, English in srt /subs[/b]
 
http://www.imdb.com/title/tt1742650/


General
Complete name                  : I.Dont.Know.How.She.Does.It.2011.BDRip.XVID.AC3.HQ.Hive-CM8.avi
Format                         : AVI
Format/Info                    : Audio Video Interleave
File size                      : 1.30 GiB
Duration                       : 1h 29mn
Overall bit rate               : 2 084 Kbps
Writing application            : Nandub v1.0rc2
Writing library                : Nandub build 1853/release

Video
ID                             : 0
Format                         : MPEG-4 Visual
Format profile                 : Advanced Simple@L5
Format settings, BVOP          : 1
Format settings, QPel          : Yes
Format settings, GMC           : No warppoints
Format settings, Matrix        : Default (H.263)
Muxing mode                    : Packed bitstream
Codec ID                       : XVID
Codec ID/Hint                  : XviD
Duration                       : 1h 29mn
Bit rate                       : 1 691 Kbps
Width                          : 720 pixels
Height                         : 400 pixels
Display aspect ratio           : 16:9
Frame rate                     : 23.976 fps
Color space                    : YUV
Chroma subsampling             : 4:2:0
Bit depth                      : 8 bits
Scan type                      : Progressive
Compression mode               : Lossy
Bits/(Pixel*Frame)             : 0.245
Stream size                    : 1.06 GiB (81%)
Writing library                : XviD 1.2.1 (UTC 2008-12-04)

Audio
ID                             : 1
Format                         : AC-3
Format/Info                    : Audio Coding 3
Mode extension                 : CM (complete main)
Codec ID                       : 2000
Duration                       : 1h 29mn
Bit rate mode                  : Constant
Bit rate                       : 384 Kbps
Channel(s)                     : 6 channels
Channel positions              : Front: L C R, Side: L R, LFE
Sampling rate                  : 48.0 KHz
Bit depth                      : 16 bits
Compression mode               : Lossy
Stream size                    : 246 MiB (18%)
Alignment                      : Split accross interleaves
Interleave, duration           : 42 ms (1.00 video frame)
Interleave, preload duration   : 500 ms


Plot:
A comedy about the life of Kate Reddy, a finance executive who is
the breadwinner for her husband and two kids.


Cast:
Sarah Jessica Parker   ...    Kate Reddy
Pierce Brosnan         ...    Jack Abelhammer
Greg Kinnear           ...    Richard Reddy
Christina Hendricks    ...    Allison Henderson
Kelsey Grammer         ...    Clark Cooper


[img]http://img412.imageshack.us/img412/6490/79413177.png[/img]
[img]http://img851.imageshack.us/img851/2291/knkn.png[/img]
[img]http://img6.imageshack.us/img6/6615/knknkn.png[/img]
[img]http://img689.imageshack.us/img689/4360/knknknkn.png[/img]
[img]http://img38.imageshack.us/img38/6568/knknknknknkn.png[/img]
[img]http://img850.imageshack.us/img850/4488/knknknknkn.png[/img]



Greetz

ViSiON,SPK,SANTi,3LT0N,FUSiON,YanKeeS,MAGNET,Feel-Free,THC,LKRG,BHRG
FANTASIA-PLAY,FANTASIA-M,FLAWL3SS,WBZ,ZMG,NOVA,D2U,Vik,Rapeseed
T0XiC,SAFC,goldadvance,MEMORY100,KaN1vE,Unevano,Pinnz,Wayne
Mr Hive,and most P2P groups
Great Work Guys :D

LOOKING FOR ANYTHING YOU WANT TO LOOK AND SOUND BETTER

CM8@hushmail.com